CATALOG 5099749880122
TITLE "cdrdao Single-File Image"
PERFORMER "Demo Artist"
FILE "image.bin" BINARY
  TRACK 01 MODE1/2352
    FLAGS DCP
    INDEX 01 00:00:00
  TRACK 02 MODE1/2352
    FLAGS DCP
    PREGAP 00:02:00
    INDEX 01 10:30:00
  TRACK 03 AUDIO
    FLAGS DCP PRE
    INDEX 00 14:58:50
    INDEX 01 15:00:00
  TRACK 04 AUDIO
    FLAGS DCP
    INDEX 01 19:45:00
